<svg width="120" height="120" viewBox="0 0 120 120" fill="none" xmlns="http://www.w3.org/2000/svg">
<rect width="120" height="120" rx="13.9817" fill="#073D44"/>
<g filter="url(#filter0_f_324_3021)">
<path d="M102.018 23.9915L98.285 29.2512L104.64 30.3532L98.3995 31.9827L102.559 36.9115L96.7315 34.1486L96.7497 40.5984L94.0614 34.7356L89.9297 39.6883L91.6385 33.469L85.2902 34.6073L90.5969 30.9416L85.0018 27.7327L91.4235 28.3355L89.2003 22.281L93.7317 26.8706L95.9204 20.8038L96.4416 27.2323L102.018 23.9915Z" fill="#EDF7F2"/>
</g>
<g filter="url(#filter1_d_324_3021)">
<path d="M102.018 23.9915L98.285 29.2512L104.64 30.3532L98.3995 31.9827L102.559 36.9115L96.7315 34.1486L96.7497 40.5984L94.0614 34.7356L89.9297 39.6883L91.6385 33.469L85.2902 34.6073L90.5969 30.9416L85.0018 27.7327L91.4235 28.3355L89.2003 22.281L93.7317 26.8706L95.9204 20.8038L96.4416 27.2323L102.018 23.9915Z" fill="#CCE0E3"/>
</g>
<path d="M43.6734 74.4277L85.2344 39.8551" stroke="#C2DDD0" stroke-width="0.349544"/>
<path d="M43.8605 56.6089L70.8379 64.2248" stroke="#C2DDD0" stroke-width="0.349544"/>
<path d="M43.1178 55.9385L62.0587 77.2673" stroke="#C2DDD0" stroke-width="0.349544"/>
<path d="M43.6733 74.4217L43.1171 55.9344" stroke="#C2DDD0" stroke-width="0.349544"/>
<path d="M58.9021 49.7288L62.0584 77.2658" stroke="#C2DDD0" stroke-width="0.349544"/>
<path d="M43.673 74.4224L62.0577 77.264" stroke="#C2DDD0" stroke-width="0.349544"/>
<path d="M59.3171 49.5654L70.8367 64.2203" stroke="#C2DDD0" stroke-width="0.349544"/>
<path d="M43.808 56.0397L85.6777 39.572L84.7227 41.0792L70.2807 63.8565L70.2299 63.9352L70.1486 64.243L70.0514 64.2173L61.6217 77.5133L61.688 78.1511L61.2852 78.0442L46.8826 100.759L45.927 102.267L45.8102 100.485L44.0495 73.5421L18.1331 67.2757L16.3414 66.8425L42.8826 56.4037L42.2341 55.6215L43.808 56.0397Z" fill="#D6EBE1" fill-opacity="0.33" stroke="white" stroke-width="1.16514"/>
<path d="M43.3955 52.4109L41.4622 28.6564L56.3186 47.3282" stroke="#B9D4D8" stroke-width="1.16514"/>
<path d="M72.6574 66.711L88.9131 85.3827L65.105 78.4974" stroke="#B9D4D8" stroke-width="1.16515"/>
<path d="M42.5858 53.9523C43.6358 53.5395 44.8216 54.0565 45.2346 55.1064C45.6474 56.1564 45.1312 57.3419 44.0814 57.755C43.0314 58.1679 41.8451 57.6519 41.432 56.602C41.019 55.552 41.5357 54.3653 42.5858 53.9523Z" fill="#EDF7F2" stroke="#073D44" stroke-width="0.396763"/>
<path d="M58.1329 47.8346C59.1829 47.4218 60.3688 47.9388 60.7817 48.9888C61.1945 50.0387 60.6783 51.2242 59.6285 51.6373C58.5785 52.0503 57.3922 51.5342 56.9791 50.4844C56.5661 49.4343 57.0828 48.2476 58.1329 47.8346Z" fill="#EDF7F2" stroke="#073D44" stroke-width="0.396763"/>
<path d="M69.5235 62.0753C70.5735 61.6625 71.7594 62.1795 72.1724 63.2295C72.5851 64.2794 72.0689 65.465 71.0191 65.878C69.9692 66.291 68.7829 65.775 68.3697 64.7251C67.9567 63.675 68.4734 62.4883 69.5235 62.0753Z" fill="#EDF7F2" stroke="#073D44" stroke-width="0.396763"/>
<path d="M61.1616 74.9532C62.2116 74.5404 63.3975 75.0574 63.8104 76.1074C64.2232 77.1573 63.707 78.3429 62.6572 78.756C61.6072 79.1689 60.4209 78.6529 60.0078 77.603C59.5948 76.5529 60.1115 75.3662 61.1616 74.9532Z" fill="#EDF7F2" stroke="#073D44" stroke-width="0.396763"/>
<path d="M42.94 72.5275C43.99 72.1147 45.1759 72.6317 45.5889 73.6816C46.0016 74.7316 45.4854 75.9171 44.4357 76.3302C43.3857 76.7431 42.1994 76.2271 41.7862 75.1772C41.3732 74.1272 41.8899 72.9405 42.94 72.5275Z" fill="#EDF7F2" stroke="#073D44" stroke-width="0.396763"/>
<path d="M59.093 58.9171C60.143 58.5043 61.3289 59.0213 61.7418 60.0713C62.1546 61.1212 61.6384 62.3067 60.5886 62.7198C59.5386 63.1328 58.3523 62.6168 57.9392 61.5669C57.5262 60.5168 58.0429 59.3301 59.093 58.9171Z" fill="#EDF7F2" stroke="#073D44" stroke-width="0.396763"/>
<path d="M51.5432 65.1769C52.5932 64.7641 53.779 65.2811 54.192 66.3311C54.6048 67.381 54.0886 68.5665 53.0388 68.9796C51.9888 69.3925 50.8025 68.8765 50.3894 67.8267C49.9764 66.7766 50.4931 65.5899 51.5432 65.1769Z" fill="#EDF7F2" stroke="#073D44" stroke-width="0.396763"/>
<defs>
<filter id="filter0_f_324_3021" x="83.8692" y="19.6711" width="21.9034" height="22.0597" filterUnits="userSpaceOnUse" color-interpolation-filters="sRGB">
<feFlood flood-opacity="0" result="BackgroundImageFix"/>
<feBlend mode="normal" in="SourceGraphic" in2="BackgroundImageFix" result="shape"/>
<feGaussianBlur stdDeviation="0.566313" result="effect1_foregroundBlur_324_3021"/>
</filter>
<filter id="filter1_d_324_3021" x="76.8469" y="20.8037" width="35.948" height="36.1042" filterUnits="userSpaceOnUse" color-interpolation-filters="sRGB">
<feFlood flood-opacity="0" result="BackgroundImageFix"/>
<feColorMatrix in="SourceAlpha" type="matrix" values="0 0 0 0 0 0 0 0 0 0 0 0 0 0 0 0 0 0 127 0" result="hardAlpha"/>
<feOffset dy="8.15491"/>
<feGaussianBlur stdDeviation="4.07745"/>
<feComposite in2="hardAlpha" operator="out"/>
<feColorMatrix type="matrix" values="0 0 0 0 0 0 0 0 0 0 0 0 0 0 0 0 0 0 0.25 0"/>
<feBlend mode="normal" in2="BackgroundImageFix" result="effect1_dropShadow_324_3021"/>
<feBlend mode="normal" in="SourceGraphic" in2="effect1_dropShadow_324_3021" result="shape"/>
</filter>
</defs>
</svg>
