<svg width="24" height="24" viewBox="0 0 24 24" fill="none" xmlns="http://www.w3.org/2000/svg">
<rect width="24.0029" height="24.0029" rx="2.74357" fill="#073D44"/>
<g filter="url(#filter0_f_324_3028)">
<path d="M20.4058 4.72277L19.6591 5.77482L20.9302 5.99526L19.682 6.32119L20.514 7.30707L19.3483 6.75444L19.352 8.04454L18.8142 6.87184L17.9878 7.86251L18.3296 6.6185L17.0598 6.84618L18.1213 6.11295L17.0021 5.47109L18.2866 5.59166L17.8419 4.38062L18.7483 5.29865L19.1861 4.08514L19.2903 5.371L20.4058 4.72277Z" fill="#EDF7F2"/>
</g>
<g filter="url(#filter1_d_324_3028)">
<path d="M20.4058 4.72277L19.6591 5.77482L20.9302 5.99526L19.682 6.32119L20.514 7.30707L19.3483 6.75444L19.352 8.04454L18.8142 6.87184L17.9878 7.86251L18.3296 6.6185L17.0598 6.84618L18.1213 6.11295L17.0021 5.47109L18.2866 5.59166L17.8419 4.38062L18.7483 5.29865L19.1861 4.08514L19.2903 5.371L20.4058 4.72277Z" fill="#CCE0E3"/>
</g>
<path d="M8.62348 14.7663L16.7788 7.98227" stroke="#C2DDD0" stroke-width="0.0685891"/>
<path d="M8.65991 11.27L13.9536 12.7645" stroke="#C2DDD0" stroke-width="0.0685891"/>
<path d="M8.51343 11.1382L12.2301 15.3234" stroke="#C2DDD0" stroke-width="0.0685891"/>
<path d="M8.62233 14.7653L8.51319 11.1376" stroke="#C2DDD0" stroke-width="0.0685891"/>
<path d="M11.6107 9.91969L12.23 15.3231" stroke="#C2DDD0" stroke-width="0.0685891"/>
<path d="M8.62305 14.7651L12.2306 15.3227" stroke="#C2DDD0" stroke-width="0.0685891"/>
<path d="M11.6924 9.8877L13.9528 12.7633" stroke="#C2DDD0" stroke-width="0.0685891"/>
<path d="M16.8648 7.92699L16.678 8.22276L13.8438 12.6923L12.1235 15.4055L9.25243 19.9336L9.06442 20.2288L9.04125 19.8793L8.69537 14.5924L3.61126 13.3631L3.25908 13.2782L16.8648 7.92699Z" fill="#D6EBE1" fill-opacity="0.33" stroke="white" stroke-width="0.22863"/>
<path d="M8.56821 10.4458L8.18884 5.78455L11.104 9.44843" stroke="#B9D4D8" stroke-width="0.22863"/>
<path d="M14.3107 13.2521L17.5005 16.916L12.8287 15.5649" stroke="#B9D4D8" stroke-width="0.22863"/>
<path d="M8.41021 10.7488C8.61619 10.6679 8.84838 10.7696 8.92939 10.9756C9.01017 11.1815 8.90923 11.4133 8.70348 11.4944C8.49753 11.5754 8.26491 11.4747 8.18376 11.2689C8.10272 11.0628 8.20416 10.8298 8.41021 10.7488Z" fill="#EDF7F2" stroke="#073D44" stroke-width="0.0778547"/>
<path d="M11.4598 9.54808C11.6658 9.46726 11.8979 9.56896 11.9789 9.77491C12.0597 9.98078 11.9588 10.2126 11.753 10.2937C11.5471 10.3747 11.3145 10.274 11.2333 10.0682C11.1523 9.86212 11.2537 9.62913 11.4598 9.54808Z" fill="#EDF7F2" stroke="#073D44" stroke-width="0.0778547"/>
<path d="M13.6951 12.3425C13.9011 12.2617 14.1333 12.3634 14.2143 12.5693C14.2951 12.7752 14.1941 13.0071 13.9884 13.0882C13.7824 13.1692 13.5498 13.0684 13.4687 12.8626C13.3876 12.6566 13.4891 12.4236 13.6951 12.3425Z" fill="#EDF7F2" stroke="#073D44" stroke-width="0.0778547"/>
<path d="M12.0547 14.8699C12.2607 14.789 12.4929 14.8907 12.5739 15.0967C12.6547 15.3026 12.5538 15.5344 12.348 15.6155C12.1421 15.6965 11.9094 15.5958 11.8283 15.3899C11.7472 15.1839 11.8487 14.9509 12.0547 14.8699Z" fill="#EDF7F2" stroke="#073D44" stroke-width="0.0778547"/>
<path d="M8.47869 14.3938C8.68467 14.313 8.91687 14.4147 8.99787 14.6206C9.07865 14.8265 8.97771 15.0583 8.77196 15.1394C8.56601 15.2204 8.33339 15.1197 8.25224 14.9139C8.1712 14.7078 8.27264 14.4748 8.47869 14.3938Z" fill="#EDF7F2" stroke="#073D44" stroke-width="0.0778547"/>
<path d="M11.6484 11.7229C11.8544 11.6421 12.0865 11.7438 12.1675 11.9497C12.2483 12.1556 12.1474 12.3874 11.9416 12.4685C11.7357 12.5495 11.5031 12.4488 11.4219 12.243C11.3409 12.0369 11.4423 11.8039 11.6484 11.7229Z" fill="#EDF7F2" stroke="#073D44" stroke-width="0.0778547"/>
<path d="M10.1661 12.9514C10.3721 12.8706 10.6042 12.9723 10.6852 13.1782C10.766 13.3841 10.6651 13.6159 10.4593 13.6971C10.2534 13.7781 10.0208 13.6773 9.93962 13.4715C9.85857 13.2654 9.96002 13.0324 10.1661 12.9514Z" fill="#EDF7F2" stroke="#073D44" stroke-width="0.0778547"/>
<defs>
<filter id="filter0_f_324_3028" x="16.7798" y="3.86271" width="4.3726" height="4.40397" filterUnits="userSpaceOnUse" color-interpolation-filters="sRGB">
<feFlood flood-opacity="0" result="BackgroundImageFix"/>
<feBlend mode="normal" in="SourceGraphic" in2="BackgroundImageFix" result="shape"/>
<feGaussianBlur stdDeviation="0.111125" result="effect1_foregroundBlur_324_3028"/>
</filter>
<filter id="filter1_d_324_3028" x="15.4019" y="4.08496" width="7.12849" height="7.15986" filterUnits="userSpaceOnUse" color-interpolation-filters="sRGB">
<feFlood flood-opacity="0" result="BackgroundImageFix"/>
<feColorMatrix in="SourceAlpha" type="matrix" values="0 0 0 0 0 0 0 0 0 0 0 0 0 0 0 0 0 0 127 0" result="hardAlpha"/>
<feOffset dy="1.6002"/>
<feGaussianBlur stdDeviation="0.800098"/>
<feComposite in2="hardAlpha" operator="out"/>
<feColorMatrix type="matrix" values="0 0 0 0 0 0 0 0 0 0 0 0 0 0 0 0 0 0 0.25 0"/>
<feBlend mode="normal" in2="BackgroundImageFix" result="effect1_dropShadow_324_3028"/>
<feBlend mode="normal" in="SourceGraphic" in2="effect1_dropShadow_324_3028" result="shape"/>
</filter>
</defs>
</svg>
