<svg width="40" height="40" viewBox="0 0 40 40" fill="none" xmlns="http://www.w3.org/2000/svg">
<rect width="40.0007" height="40.0007" rx="4.64652" fill="#073D44"/>
<g filter="url(#filter0_f_324_3026)">
<path d="M34.1176 7.92818L32.8732 9.68142L34.9916 10.0488L32.9114 10.5919L34.298 12.2349L32.3553 11.3139L32.3614 13.4639L31.4653 11.5096L30.088 13.1605L30.6577 11.0874L28.5415 11.4668L30.3105 10.2449L28.4454 9.17526L30.586 9.37619L29.8449 7.358L31.3554 8.88788L32.085 6.86558L32.2587 9.00846L34.1176 7.92818Z" fill="#EDF7F2"/>
</g>
<g filter="url(#filter1_d_324_3026)">
<path d="M34.1176 7.92818L32.8732 9.68142L34.9916 10.0488L32.9114 10.5919L34.298 12.2349L32.3553 11.3139L32.3614 13.4639L31.4653 11.5096L30.088 13.1605L30.6577 11.0874L28.5415 11.4668L30.3105 10.2449L28.4454 9.17526L30.586 9.37619L29.8449 7.358L31.3554 8.88788L32.085 6.86558L32.2587 9.00846L34.1176 7.92818Z" fill="#CCE0E3"/>
</g>
<path d="M14.6358 24.6446L28.4476 13.1552" stroke="#C2DDD0" stroke-width="0.116163"/>
<path d="M14.6976 18.7227L23.663 21.2536" stroke="#C2DDD0" stroke-width="0.116163"/>
<path d="M14.4509 18.5005L20.7455 25.5886" stroke="#C2DDD0" stroke-width="0.116163"/>
<path d="M14.6355 24.643L14.4507 18.4992" stroke="#C2DDD0" stroke-width="0.116163"/>
<path d="M19.696 16.4365L20.7449 25.5878" stroke="#C2DDD0" stroke-width="0.116163"/>
<path d="M14.6348 24.6431L20.7445 25.5874" stroke="#C2DDD0" stroke-width="0.116163"/>
<path d="M19.8342 16.3823L23.6625 21.2525" stroke="#C2DDD0" stroke-width="0.116163"/>
<path d="M14.6815 18.5335L28.5951 13.0612L28.277 13.5617L23.4781 21.1311L23.4609 21.1567L23.4342 21.2595L23.4013 21.2504L20.5996 25.6695L20.6223 25.8818L20.4875 25.8457L15.7017 33.3952L15.384 33.8967L15.3461 33.3044L14.7597 24.3504L6.14769 22.2674L5.55228 22.1241L14.3727 18.6549L14.1571 18.3947L14.6815 18.5335Z" fill="#D6EBE1" fill-opacity="0.33" stroke="white" stroke-width="0.38721"/>
<path d="M14.5428 17.3275L13.9003 9.43324L18.8375 15.6384" stroke="#B9D4D8" stroke-width="0.38721"/>
<path d="M24.2671 22.0797L29.6693 28.2848L21.7572 25.9966" stroke="#B9D4D8" stroke-width="0.38721"/>
<path d="M14.2733 17.8405C14.6222 17.7033 15.0163 17.8743 15.1536 18.2231C15.2909 18.5721 15.1191 18.9666 14.7702 19.1038C14.4212 19.2409 14.0276 19.0688 13.8903 18.72C13.7533 18.3711 13.9245 17.9778 14.2733 17.8405Z" fill="#EDF7F2" stroke="#073D44" stroke-width="0.131855"/>
<path d="M19.4401 15.8073C19.789 15.6701 20.1832 15.8411 20.3205 16.1899C20.4578 16.5389 20.286 16.9334 19.937 17.0706C19.5881 17.2077 19.1944 17.0356 19.0572 16.6867C18.9201 16.3379 19.0914 15.9446 19.4401 15.8073Z" fill="#EDF7F2" stroke="#073D44" stroke-width="0.131855"/>
<path d="M23.2253 20.5397C23.5742 20.4025 23.9683 20.5735 24.1057 20.9223C24.2429 21.2713 24.0712 21.6658 23.7222 21.803C23.3733 21.9401 22.9796 21.7681 22.8424 21.4192C22.7053 21.0703 22.8766 20.677 23.2253 20.5397Z" fill="#EDF7F2" stroke="#073D44" stroke-width="0.131855"/>
<path d="M20.4469 24.8195C20.7958 24.6823 21.1899 24.8533 21.3272 25.2021C21.4645 25.5511 21.2927 25.9456 20.9437 26.0828C20.5948 26.2199 20.2011 26.0479 20.0639 25.699C19.9269 25.3501 20.0981 24.9568 20.4469 24.8195Z" fill="#EDF7F2" stroke="#073D44" stroke-width="0.131855"/>
<path d="M14.3913 24.0133C14.7402 23.8761 15.1344 24.0471 15.2717 24.3959C15.4089 24.7449 15.2372 25.1394 14.8882 25.2767C14.5393 25.4138 14.1456 25.2417 14.0084 24.8928C13.8713 24.544 14.0426 24.1506 14.3913 24.0133Z" fill="#EDF7F2" stroke="#073D44" stroke-width="0.131855"/>
<path d="M19.7592 19.4904C20.1081 19.3532 20.5023 19.5242 20.6396 19.873C20.7769 20.222 20.6051 20.6165 20.2561 20.7537C19.9072 20.8908 19.5135 20.7188 19.3763 20.3699C19.2392 20.021 19.4105 19.6277 19.7592 19.4904Z" fill="#EDF7F2" stroke="#073D44" stroke-width="0.131855"/>
<path d="M17.2502 21.5705C17.5991 21.4332 17.9932 21.6042 18.1306 21.9531C18.2678 22.302 18.0961 22.6965 17.7471 22.8338C17.3982 22.9709 17.0045 22.7988 16.8673 22.4499C16.7302 22.1011 16.9015 21.7078 17.2502 21.5705Z" fill="#EDF7F2" stroke="#073D44" stroke-width="0.131855"/>
<defs>
<filter id="filter0_f_324_3026" x="28.069" y="6.48932" width="7.29895" height="7.35095" filterUnits="userSpaceOnUse" color-interpolation-filters="sRGB">
<feFlood flood-opacity="0" result="BackgroundImageFix"/>
<feBlend mode="normal" in="SourceGraphic" in2="BackgroundImageFix" result="shape"/>
<feGaussianBlur stdDeviation="0.188201" result="effect1_foregroundBlur_324_3026"/>
</filter>
<filter id="filter1_d_324_3026" x="25.7353" y="6.86572" width="11.9663" height="12.0183" filterUnits="userSpaceOnUse" color-interpolation-filters="sRGB">
<feFlood flood-opacity="0" result="BackgroundImageFix"/>
<feColorMatrix in="SourceAlpha" type="matrix" values="0 0 0 0 0 0 0 0 0 0 0 0 0 0 0 0 0 0 127 0" result="hardAlpha"/>
<feOffset dy="2.7101"/>
<feGaussianBlur stdDeviation="1.35505"/>
<feComposite in2="hardAlpha" operator="out"/>
<feColorMatrix type="matrix" values="0 0 0 0 0 0 0 0 0 0 0 0 0 0 0 0 0 0 0.25 0"/>
<feBlend mode="normal" in2="BackgroundImageFix" result="effect1_dropShadow_324_3026"/>
<feBlend mode="normal" in="SourceGraphic" in2="effect1_dropShadow_324_3026" result="shape"/>
</filter>
</defs>
</svg>
