<svg width="48" height="48" viewBox="0 0 48 48" fill="none" xmlns="http://www.w3.org/2000/svg">
<rect width="48" height="48" rx="5.57572" fill="#073D44"/>
<g filter="url(#filter0_f_324_3025)">
<path d="M40.9404 9.5138L39.4472 11.6176L41.9892 12.0585L39.493 12.7102L41.1569 14.6818L38.8258 13.5766L38.8331 16.1565L37.7578 13.8114L36.105 15.7925L36.7886 13.3048L34.2493 13.7601L36.3719 12.2938L34.1339 11.0103L36.7026 11.2514L35.8133 8.8296L37.6258 10.6654L38.5013 8.23871L38.7098 10.8101L40.9404 9.5138Z" fill="#EDF7F2"/>
</g>
<g filter="url(#filter1_d_324_3025)">
<path d="M40.9404 9.5138L39.4472 11.6176L41.9892 12.0585L39.493 12.7102L41.1569 14.6818L38.8258 13.5766L38.8331 16.1565L37.7578 13.8114L36.105 15.7925L36.7886 13.3048L34.2493 13.7601L36.3719 12.2938L34.1339 11.0103L36.7026 11.2514L35.8133 8.8296L37.6258 10.6654L38.5013 8.23871L38.7098 10.8101L40.9404 9.5138Z" fill="#CCE0E3"/>
</g>
<path d="M17.5627 29.5725L34.1366 15.7854" stroke="#C2DDD0" stroke-width="0.139393"/>
<path d="M17.637 22.4668L28.3952 25.5039" stroke="#C2DDD0" stroke-width="0.139393"/>
<path d="M17.3408 22.1992L24.8942 30.7049" stroke="#C2DDD0" stroke-width="0.139393"/>
<path d="M17.5624 29.5702L17.3406 22.1977" stroke="#C2DDD0" stroke-width="0.139393"/>
<path d="M23.6348 19.7227L24.8934 30.7041" stroke="#C2DDD0" stroke-width="0.139393"/>
<path d="M17.5615 29.5703L24.8931 30.7035" stroke="#C2DDD0" stroke-width="0.139393"/>
<path d="M23.8007 19.6577L28.3945 25.5019" stroke="#C2DDD0" stroke-width="0.139393"/>
<path d="M34.3131 15.673L33.9317 16.2739L28.1732 25.3575L24.6766 30.8709L18.8422 40.0735L18.4609 40.6745L18.4142 39.964L17.7118 29.2193L7.37712 26.7212L6.663 26.5479L34.3131 15.673Z" fill="#D6EBE1" fill-opacity="0.33" stroke="white" stroke-width="0.464643"/>
<path d="M17.451 20.7927L16.68 11.3197L22.6046 18.7658" stroke="#B9D4D8" stroke-width="0.464643"/>
<path d="M29.1199 26.4953L35.6024 33.9413L26.1081 31.1955" stroke="#B9D4D8" stroke-width="0.464643"/>
<path d="M17.1277 21.4075C17.5464 21.2429 18.0196 21.4489 18.1843 21.8676C18.3489 22.2863 18.1429 22.7595 17.7242 22.9242C17.3055 23.0889 16.8324 22.8828 16.6676 22.4641C16.5029 22.0454 16.7089 21.5722 17.1277 21.4075Z" fill="#EDF7F2" stroke="#073D44" stroke-width="0.158223"/>
<path d="M23.3279 18.968C23.7466 18.8034 24.2198 19.0094 24.3845 19.4282C24.5491 19.8468 24.3431 20.3201 23.9244 20.4848C23.5057 20.6495 23.0326 20.4434 22.8678 20.0247C22.7031 19.6059 22.9091 19.1328 23.3279 18.968Z" fill="#EDF7F2" stroke="#073D44" stroke-width="0.158223"/>
<path d="M27.8699 24.6468C28.2886 24.4821 28.7618 24.6881 28.9265 25.1069C29.0911 25.5256 28.8851 25.9988 28.4664 26.1635C28.0477 26.3282 27.5745 26.1221 27.4098 25.7034C27.2451 25.2846 27.4511 24.8115 27.8699 24.6468Z" fill="#EDF7F2" stroke="#073D44" stroke-width="0.158223"/>
<path d="M24.5359 29.7825C24.9546 29.6179 25.4278 29.8239 25.5925 30.2426C25.7571 30.6613 25.5511 31.1345 25.1324 31.2992C24.7137 31.4639 24.2406 31.2578 24.0758 30.8391C23.9111 30.4204 24.1171 29.9472 24.5359 29.7825Z" fill="#EDF7F2" stroke="#073D44" stroke-width="0.158223"/>
<path d="M17.2693 28.8152C17.688 28.6506 18.1612 28.8566 18.3259 29.2753C18.4905 29.694 18.2845 30.1672 17.8658 30.3319C17.4471 30.4966 16.974 30.2905 16.8092 29.8718C16.6445 29.4531 16.8505 28.9799 17.2693 28.8152Z" fill="#EDF7F2" stroke="#073D44" stroke-width="0.158223"/>
<path d="M23.7107 23.3875C24.1294 23.2229 24.6026 23.4289 24.7673 23.8476C24.9319 24.2663 24.7259 24.7395 24.3072 24.9042C23.8885 25.0689 23.4154 24.8628 23.2506 24.4441C23.0859 24.0253 23.2919 23.5522 23.7107 23.3875Z" fill="#EDF7F2" stroke="#073D44" stroke-width="0.158223"/>
<path d="M20.7 25.8836C21.1187 25.719 21.5919 25.925 21.7566 26.3437C21.9212 26.7624 21.7151 27.2356 21.2965 27.4003C20.8778 27.565 20.4046 27.3589 20.2399 26.9402C20.0752 26.5214 20.2812 26.0483 20.7 25.8836Z" fill="#EDF7F2" stroke="#073D44" stroke-width="0.158223"/>
<defs>
<filter id="filter0_f_324_3025" x="33.6822" y="7.78709" width="8.75857" height="8.82132" filterUnits="userSpaceOnUse" color-interpolation-filters="sRGB">
<feFlood flood-opacity="0" result="BackgroundImageFix"/>
<feBlend mode="normal" in="SourceGraphic" in2="BackgroundImageFix" result="shape"/>
<feGaussianBlur stdDeviation="0.225837" result="effect1_foregroundBlur_324_3025"/>
</filter>
<filter id="filter1_d_324_3025" x="30.8819" y="8.23877" width="14.3593" height="14.4221" filterUnits="userSpaceOnUse" color-interpolation-filters="sRGB">
<feFlood flood-opacity="0" result="BackgroundImageFix"/>
<feColorMatrix in="SourceAlpha" type="matrix" values="0 0 0 0 0 0 0 0 0 0 0 0 0 0 0 0 0 0 127 0" result="hardAlpha"/>
<feOffset dy="3.25206"/>
<feGaussianBlur stdDeviation="1.62603"/>
<feComposite in2="hardAlpha" operator="out"/>
<feColorMatrix type="matrix" values="0 0 0 0 0 0 0 0 0 0 0 0 0 0 0 0 0 0 0.25 0"/>
<feBlend mode="normal" in2="BackgroundImageFix" result="effect1_dropShadow_324_3025"/>
<feBlend mode="normal" in="SourceGraphic" in2="effect1_dropShadow_324_3025" result="shape"/>
</filter>
</defs>
</svg>
