<svg width="54" height="54" viewBox="0 0 54 54" fill="none" xmlns="http://www.w3.org/2000/svg">
<rect width="54" height="54" rx="6.17227" fill="#073D44"/>
<g filter="url(#filter0_f_324_3024)">
<path d="M45.9079 10.6256L44.2281 12.9925L47.0878 13.4884L44.2796 14.2216L46.1515 16.4396L43.529 15.1963L43.5372 18.0987L42.3275 15.4605L40.4682 17.6892L41.2371 14.8905L38.3804 15.4027L40.7684 13.7532L38.2506 12.3092L41.1404 12.5804L40.14 9.8559L42.1791 11.9212L43.164 9.19116L43.3985 12.084L45.9079 10.6256Z" fill="#EDF7F2"/>
</g>
<g filter="url(#filter1_d_324_3024)">
<path d="M45.9079 10.6256L44.2281 12.9925L47.0878 13.4884L44.2796 14.2216L46.1515 16.4396L43.529 15.1963L43.5372 18.0987L42.3275 15.4605L40.4682 17.6892L41.2371 14.8905L38.3804 15.4027L40.7684 13.7532L38.2506 12.3092L41.1404 12.5804L40.14 9.8559L42.1791 11.9212L43.164 9.19116L43.3985 12.084L45.9079 10.6256Z" fill="#CCE0E3"/>
</g>
<path d="M19.3986 33.2201L37.7458 17.958" stroke="#C2DDD0" stroke-width="0.154307"/>
<path d="M19.4812 25.354L31.3904 28.7161" stroke="#C2DDD0" stroke-width="0.154307"/>
<path d="M19.1533 25.0581L27.5148 34.4738" stroke="#C2DDD0" stroke-width="0.154307"/>
<path d="M19.3986 33.2174L19.153 25.0562" stroke="#C2DDD0" stroke-width="0.154307"/>
<path d="M26.1213 22.3168L27.5147 34.473" stroke="#C2DDD0" stroke-width="0.154307"/>
<path d="M19.3984 33.2178L27.5144 34.4722" stroke="#C2DDD0" stroke-width="0.154307"/>
<path d="M26.3046 22.2446L31.3899 28.7141" stroke="#C2DDD0" stroke-width="0.154307"/>
<path d="M37.9419 17.8333L37.5198 18.4985L31.144 28.5537L27.2745 34.6575L20.8151 44.8442L20.3934 45.5103L20.3417 44.7231L19.5639 32.8293L8.12435 30.0631L7.33294 29.872L37.9419 17.8333Z" fill="#D6EBE1" fill-opacity="0.33" stroke="white" stroke-width="0.514356"/>
<path d="M19.2759 23.5008L18.4225 13.0143L24.9809 21.257" stroke="#B9D4D8" stroke-width="0.514356"/>
<path d="M32.1937 29.8136L39.3698 38.0562L28.8596 35.0167" stroke="#B9D4D8" stroke-width="0.514356"/>
<path d="M18.9186 24.1815C19.3822 23.9992 19.9056 24.2271 20.0879 24.6906C20.2701 25.1541 20.0422 25.6775 19.5788 25.8598C19.1152 26.0421 18.5919 25.8142 18.4095 25.3507C18.2272 24.8871 18.4551 24.3638 18.9186 24.1815Z" fill="#EDF7F2" stroke="#073D44" stroke-width="0.175152"/>
<path d="M25.7819 21.4808C26.2455 21.2985 26.7688 21.5264 26.9512 21.9899C27.1334 22.4534 26.9055 22.9768 26.442 23.1592C25.9785 23.3415 25.4552 23.1135 25.2728 22.65C25.0905 22.1865 25.3184 21.6631 25.7819 21.4808Z" fill="#EDF7F2" stroke="#073D44" stroke-width="0.175152"/>
<path d="M30.8104 27.7674C31.2739 27.5851 31.7973 27.813 31.9796 28.2765C32.1618 28.74 31.9339 29.2634 31.4705 29.4458C31.007 29.6281 30.4836 29.4001 30.3012 28.9366C30.1189 28.4731 30.3468 27.9497 30.8104 27.7674Z" fill="#EDF7F2" stroke="#073D44" stroke-width="0.175152"/>
<path d="M27.119 33.4524C27.5825 33.2702 28.1059 33.4981 28.2882 33.9616C28.4704 34.4251 28.2425 34.9485 27.7791 35.1308C27.3156 35.3131 26.7922 35.0852 26.6098 34.6217C26.4275 34.1581 26.6554 33.6348 27.119 33.4524Z" fill="#EDF7F2" stroke="#073D44" stroke-width="0.175152"/>
<path d="M19.075 32.3816C19.5385 32.1994 20.0619 32.4273 20.2442 32.8908C20.4265 33.3543 20.1986 33.8777 19.7351 34.06C19.2716 34.2423 18.7483 34.0144 18.5659 33.5509C18.3836 33.0873 18.6114 32.564 19.075 32.3816Z" fill="#EDF7F2" stroke="#073D44" stroke-width="0.175152"/>
<path d="M26.2057 26.3733C26.6693 26.1911 27.1927 26.419 27.375 26.8825C27.5572 27.346 27.3293 27.8694 26.8659 28.0517C26.4023 28.234 25.879 28.0061 25.6966 27.5426C25.5143 27.079 25.7422 26.5557 26.2057 26.3733Z" fill="#EDF7F2" stroke="#073D44" stroke-width="0.175152"/>
<path d="M22.8729 29.1365C23.3364 28.9543 23.8598 29.1821 24.0421 29.6457C24.2243 30.1092 23.9964 30.6326 23.533 30.8149C23.0695 30.9972 22.5461 30.7693 22.3637 30.3058C22.1814 29.8422 22.4093 29.3189 22.8729 29.1365Z" fill="#EDF7F2" stroke="#073D44" stroke-width="0.175152"/>
<defs>
<filter id="filter0_f_324_3024" x="37.7506" y="8.69092" width="9.83716" height="9.90771" filterUnits="userSpaceOnUse" color-interpolation-filters="sRGB">
<feFlood flood-opacity="0" result="BackgroundImageFix"/>
<feBlend mode="normal" in="SourceGraphic" in2="BackgroundImageFix" result="shape"/>
<feGaussianBlur stdDeviation="0.25" result="effect1_foregroundBlur_324_3024"/>
</filter>
<filter id="filter1_d_324_3024" x="34.6506" y="9.19092" width="16.0372" height="16.1077" filterUnits="userSpaceOnUse" color-interpolation-filters="sRGB">
<feFlood flood-opacity="0" result="BackgroundImageFix"/>
<feColorMatrix in="SourceAlpha" type="matrix" values="0 0 0 0 0 0 0 0 0 0 0 0 0 0 0 0 0 0 127 0" result="hardAlpha"/>
<feOffset dy="3.6"/>
<feGaussianBlur stdDeviation="1.8"/>
<feComposite in2="hardAlpha" operator="out"/>
<feColorMatrix type="matrix" values="0 0 0 0 0 0 0 0 0 0 0 0 0 0 0 0 0 0 0.25 0"/>
<feBlend mode="normal" in2="BackgroundImageFix" result="effect1_dropShadow_324_3024"/>
<feBlend mode="normal" in="SourceGraphic" in2="effect1_dropShadow_324_3024" result="shape"/>
</filter>
</defs>
</svg>
