<svg width="64" height="64" viewBox="0 0 64 64" fill="none" xmlns="http://www.w3.org/2000/svg">
<rect width="64" height="64" rx="7.31537" fill="#073D44"/>
<g filter="url(#filter0_f_324_3023)">
<path d="M54.4095 12.5928L52.4185 15.398L55.8079 15.9857L52.4796 16.8548L54.6982 19.4835L51.59 18.01L51.5997 21.4499L50.1659 18.323L47.9623 20.9645L48.8737 17.6475L45.4879 18.2546L48.3182 16.2995L45.3341 14.5881L48.759 14.9096L47.5733 11.6805L49.99 14.1283L51.1574 10.8927L51.4354 14.3212L54.4095 12.5928Z" fill="#EDF7F2"/>
</g>
<g filter="url(#filter1_d_324_3023)">
<path d="M54.4095 12.5928L52.4185 15.398L55.8079 15.9857L52.4796 16.8548L54.6982 19.4835L51.59 18.01L51.5997 21.4499L50.1659 18.323L47.9623 20.9645L48.8737 17.6475L45.4879 18.2546L48.3182 16.2995L45.3341 14.5881L48.759 14.9096L47.5733 11.6805L49.99 14.1283L51.1574 10.8927L51.4354 14.3212L54.4095 12.5928Z" fill="#CCE0E3"/>
</g>
<path d="M22.9912 39.3724L44.7363 21.2837" stroke="#C2DDD0" stroke-width="0.182884"/>
<path d="M23.0891 30.0498L37.2039 34.0345" stroke="#C2DDD0" stroke-width="0.182884"/>
<path d="M22.7006 29.6987L32.6106 40.8582" stroke="#C2DDD0" stroke-width="0.182884"/>
<path d="M22.9911 39.3695L22.7001 29.6969" stroke="#C2DDD0" stroke-width="0.182884"/>
<path d="M30.959 26.4497L32.6104 40.8574" stroke="#C2DDD0" stroke-width="0.182884"/>
<path d="M22.9911 39.3696L32.6101 40.8564" stroke="#C2DDD0" stroke-width="0.182884"/>
<path d="M31.1761 26.3643L37.2033 34.0318" stroke="#C2DDD0" stroke-width="0.182884"/>
<path d="M23.0617 29.752L44.9683 21.136L44.4687 21.924L36.9125 33.8414L36.8856 33.8824L36.8432 34.0438L36.7918 34.0305L32.3819 40.9865L32.4169 41.3209L32.2059 41.2644L24.6706 53.1495L24.1704 53.9387L24.1089 53.0065L23.187 38.9094L9.62859 35.63L8.69133 35.404L22.5777 29.9424L22.2382 29.5327L23.0617 29.752Z" fill="#D6EBE1" fill-opacity="0.33" stroke="white" stroke-width="0.609614"/>
<path d="M22.8458 27.8532L21.8343 15.4246L29.6073 25.1939" stroke="#B9D4D8" stroke-width="0.609614"/>
<path d="M38.156 35.3349L46.6611 45.104L34.2045 41.5016" stroke="#B9D4D8" stroke-width="0.609614"/>
<path d="M22.4224 28.6591C22.9717 28.4432 23.5923 28.7141 23.8083 29.2634C24.0241 29.8126 23.7541 30.4329 23.205 30.649C22.6557 30.8651 22.0347 30.5952 21.8185 30.046C21.6024 29.4966 21.8729 28.8752 22.4224 28.6591Z" fill="#EDF7F2" stroke="#073D44" stroke-width="0.20759"/>
<path d="M30.5566 25.4584C31.106 25.2426 31.7266 25.5134 31.9426 26.0627C32.1584 26.6119 31.8884 27.2322 31.3393 27.4483C30.79 27.6644 30.169 27.3945 29.9528 26.8453C29.7367 26.2959 30.0072 25.6745 30.5566 25.4584Z" fill="#EDF7F2" stroke="#073D44" stroke-width="0.20759"/>
<path d="M36.5164 32.9096C37.0657 32.6937 37.6863 32.9646 37.9023 33.5139C38.1181 34.0631 37.8481 34.6833 37.299 34.8995C36.7497 35.1155 36.1287 34.8457 35.9125 34.2965C35.6964 33.7471 35.9669 33.1257 36.5164 32.9096Z" fill="#EDF7F2" stroke="#073D44" stroke-width="0.20759"/>
<path d="M32.1414 39.6474C32.6907 39.4315 33.3113 39.7024 33.5273 40.2517C33.7431 40.8009 33.4731 41.4211 32.924 41.6373C32.3747 41.8533 31.7537 41.5835 31.5375 41.0343C31.3214 40.4849 31.5919 39.8635 32.1414 39.6474Z" fill="#EDF7F2" stroke="#073D44" stroke-width="0.20759"/>
<path d="M22.6077 38.3783C23.157 38.1625 23.7776 38.4333 23.9936 38.9826C24.2094 39.5318 23.9394 40.1521 23.3903 40.3683C22.841 40.5843 22.22 40.3144 22.0038 39.7652C21.7877 39.2158 22.0583 38.5944 22.6077 38.3783Z" fill="#EDF7F2" stroke="#073D44" stroke-width="0.20759"/>
<path d="M31.059 31.2572C31.6083 31.0414 32.2289 31.3122 32.4449 31.8615C32.6607 32.4107 32.3907 33.031 31.8416 33.2472C31.2923 33.4632 30.6713 33.1933 30.4551 32.6441C30.239 32.0947 30.5095 31.4733 31.059 31.2572Z" fill="#EDF7F2" stroke="#073D44" stroke-width="0.20759"/>
<path d="M27.1089 34.5322C27.6582 34.3163 28.2788 34.5871 28.4949 35.1364C28.7107 35.6856 28.4406 36.3059 27.8915 36.5221C27.3422 36.7381 26.7212 36.4682 26.505 35.9191C26.2889 35.3696 26.5595 34.7482 27.1089 34.5322Z" fill="#EDF7F2" stroke="#073D44" stroke-width="0.20759"/>
<defs>
<filter id="filter0_f_324_3023" x="44.7415" y="10.3" width="11.659" height="11.7423" filterUnits="userSpaceOnUse" color-interpolation-filters="sRGB">
<feFlood flood-opacity="0" result="BackgroundImageFix"/>
<feBlend mode="normal" in="SourceGraphic" in2="BackgroundImageFix" result="shape"/>
<feGaussianBlur stdDeviation="0.2963" result="effect1_foregroundBlur_324_3023"/>
</filter>
<filter id="filter1_d_324_3023" x="41.0674" y="10.8926" width="19.0072" height="19.0906" filterUnits="userSpaceOnUse" color-interpolation-filters="sRGB">
<feFlood flood-opacity="0" result="BackgroundImageFix"/>
<feColorMatrix in="SourceAlpha" type="matrix" values="0 0 0 0 0 0 0 0 0 0 0 0 0 0 0 0 0 0 127 0" result="hardAlpha"/>
<feOffset dy="4.26672"/>
<feGaussianBlur stdDeviation="2.13336"/>
<feComposite in2="hardAlpha" operator="out"/>
<feColorMatrix type="matrix" values="0 0 0 0 0 0 0 0 0 0 0 0 0 0 0 0 0 0 0.25 0"/>
<feBlend mode="normal" in2="BackgroundImageFix" result="effect1_dropShadow_324_3023"/>
<feBlend mode="normal" in="SourceGraphic" in2="effect1_dropShadow_324_3023" result="shape"/>
</filter>
</defs>
</svg>
