<svg width="82" height="82" viewBox="0 0 82 82" fill="none" xmlns="http://www.w3.org/2000/svg">
<rect width="82" height="82" rx="9.49256" fill="#073D44"/>
<g filter="url(#filter0_f_324_3022)">
<path d="M69.7124 16.3048L67.1615 19.8988L71.5041 20.6519L67.2397 21.7653L70.0823 25.1334L66.0999 23.2454L66.1124 27.6527L64.2754 23.6465L61.452 27.0309L62.6197 22.781L58.2817 23.5589L61.908 21.054L58.0846 18.8612L62.4728 19.2731L60.9536 15.1359L64.05 18.2721L65.5457 14.1265L65.9018 18.5193L69.7124 16.3048Z" fill="#EDF7F2"/>
</g>
<g filter="url(#filter1_d_324_3022)">
<path d="M69.7124 16.3048L67.1615 19.8988L71.5041 20.6519L67.2397 21.7653L70.0823 25.1334L66.0999 23.2454L66.1124 27.6527L64.2754 23.6465L61.452 27.0309L62.6197 22.781L58.2817 23.5589L61.908 21.054L58.0846 18.8612L62.4728 19.2731L60.9536 15.1359L64.05 18.2721L65.5457 14.1265L65.9018 18.5193L69.7124 16.3048Z" fill="#CCE0E3"/>
</g>
<path d="M29.7123 50.7185L57.9292 27.2463" stroke="#C2DDD0" stroke-width="0.237314"/>
<path d="M29.8395 38.6211L48.1552 43.7917" stroke="#C2DDD0" stroke-width="0.237314"/>
<path d="M29.3352 38.166L42.1947 52.6467" stroke="#C2DDD0" stroke-width="0.237314"/>
<path d="M29.7123 50.7144L29.3347 38.163" stroke="#C2DDD0" stroke-width="0.237314"/>
<path d="M40.0516 33.9499L42.1944 52.6455" stroke="#C2DDD0" stroke-width="0.237314"/>
<path d="M29.7122 50.7153L42.194 52.6446" stroke="#C2DDD0" stroke-width="0.237314"/>
<path d="M40.3334 33.8389L48.1543 43.7885" stroke="#C2DDD0" stroke-width="0.237314"/>
<path d="M29.8046 38.2347L58.2303 27.0547L57.5817 28.0774L47.7765 43.5421L47.7425 43.5943L47.6878 43.8045L47.621 43.7867L41.8978 52.8135L41.9424 53.2469L41.6694 53.1739L31.8912 68.5954L31.2421 69.6194L31.1628 68.41L29.9674 50.1166L12.3726 45.8638L11.1566 45.5691L29.1761 38.4819L28.7354 37.9505L29.8046 38.2347Z" fill="#D6EBE1" fill-opacity="0.33" stroke="white" stroke-width="0.791047"/>
<path d="M29.5238 35.771L28.2112 19.6435L38.2976 32.3202" stroke="#B9D4D8" stroke-width="0.791047"/>
<path d="M49.3905 45.4798L60.4269 58.1565L44.2629 53.4818" stroke="#B9D4D8" stroke-width="0.791047"/>
<path d="M28.9736 36.8175C29.6865 36.5371 30.4922 36.8873 30.7726 37.6001C31.0531 38.3131 30.7021 39.1191 29.9891 39.3996C29.2763 39.6798 28.471 39.3285 28.1906 38.6156C27.9104 37.9029 28.2609 37.0979 28.9736 36.8175Z" fill="#EDF7F2" stroke="#073D44" stroke-width="0.269372"/>
<path d="M39.5289 32.6642C40.2418 32.3838 41.0475 32.734 41.3279 33.4468C41.6083 34.1597 41.2574 34.9658 40.5444 35.2462C39.8316 35.5265 39.0263 35.1752 38.7459 34.4623C38.4657 33.7495 38.8162 32.9446 39.5289 32.6642Z" fill="#EDF7F2" stroke="#073D44" stroke-width="0.269372"/>
<path d="M47.2624 42.3326C47.9753 42.0522 48.781 42.4025 49.0615 43.1153C49.3419 43.8282 48.9909 44.6343 48.278 44.9147C47.5651 45.1949 46.7598 44.8436 46.4795 44.1308C46.1993 43.418 46.5497 42.6131 47.2624 42.3326Z" fill="#EDF7F2" stroke="#073D44" stroke-width="0.269372"/>
<path d="M41.5853 51.0758C42.2981 50.7954 43.1039 51.1456 43.3843 51.8584C43.6647 52.5714 43.3138 53.3774 42.6008 53.6579C41.888 53.9381 41.0827 53.5868 40.8023 52.8739C40.5221 52.1612 40.8726 51.3562 41.5853 51.0758Z" fill="#EDF7F2" stroke="#073D44" stroke-width="0.269372"/>
<path d="M29.2142 49.4288C29.9271 49.1484 30.7328 49.4987 31.0132 50.2115C31.2937 50.9244 30.9427 51.7305 30.2297 52.0109C29.5169 52.2911 28.7116 51.9398 28.4312 51.227C28.151 50.5142 28.5015 49.7093 29.2142 49.4288Z" fill="#EDF7F2" stroke="#073D44" stroke-width="0.269372"/>
<path d="M40.1808 40.1886C40.8936 39.9082 41.6993 40.2584 41.9798 40.9712C42.2602 41.6841 41.9092 42.4902 41.1963 42.7706C40.4834 43.0509 39.6782 42.6996 39.3978 41.9867C39.1176 41.2739 39.4681 40.469 40.1808 40.1886Z" fill="#EDF7F2" stroke="#073D44" stroke-width="0.269372"/>
<path d="M35.055 44.4381C35.7679 44.1577 36.5736 44.5079 36.8541 45.2207C37.1345 45.9337 36.7835 46.7398 36.0706 47.0202C35.3577 47.3004 34.5524 46.9491 34.2721 46.2362C33.9919 45.5235 34.3423 44.7185 35.055 44.4381Z" fill="#EDF7F2" stroke="#073D44" stroke-width="0.269372"/>
<defs>
<filter id="filter0_f_324_3022" x="57.3156" y="13.3575" width="14.9574" height="15.0643" filterUnits="userSpaceOnUse" color-interpolation-filters="sRGB">
<feFlood flood-opacity="0" result="BackgroundImageFix"/>
<feBlend mode="normal" in="SourceGraphic" in2="BackgroundImageFix" result="shape"/>
<feGaussianBlur stdDeviation="0.384484" result="effect1_foregroundBlur_324_3022"/>
</filter>
<filter id="filter1_d_324_3022" x="52.548" y="14.1265" width="24.4926" height="24.5995" filterUnits="userSpaceOnUse" color-interpolation-filters="sRGB">
<feFlood flood-opacity="0" result="BackgroundImageFix"/>
<feColorMatrix in="SourceAlpha" type="matrix" values="0 0 0 0 0 0 0 0 0 0 0 0 0 0 0 0 0 0 127 0" result="hardAlpha"/>
<feOffset dy="5.53658"/>
<feGaussianBlur stdDeviation="2.76829"/>
<feComposite in2="hardAlpha" operator="out"/>
<feColorMatrix type="matrix" values="0 0 0 0 0 0 0 0 0 0 0 0 0 0 0 0 0 0 0.25 0"/>
<feBlend mode="normal" in2="BackgroundImageFix" result="effect1_dropShadow_324_3022"/>
<feBlend mode="normal" in="SourceGraphic" in2="effect1_dropShadow_324_3022" result="shape"/>
</filter>
</defs>
</svg>
